<svg width="39" height="48" viewBox="0 0 39 48" fill="none" xmlns="http://www.w3.org/2000/svg">
<path fill-rule="evenodd" clip-rule="evenodd" d="M24.7995 0H4.01056C1.80374 0.00279851 0.0154938 1.79104 0.0126953 3.99787V43.9765C0.0154938 46.1834 1.80374 47.9716 4.01056 47.9744H23.9999V46.544C23.9961 42.9421 25.0623 39.4194 27.0639 36.4246C27.2758 36.1071 27.2332 35.6848 26.9639 35.4155L21.3669 29.8185C20.8496 29.3006 20.5753 28.5884 20.6115 27.8573C20.6479 27.1259 20.9915 26.4447 21.5572 25.9805C22.6468 25.1476 24.1878 25.2665 25.1369 26.2562L33.0295 34.149L34.1601 33.0184L28.7973 27.6541V3.99787C28.7945 1.79104 27.0063 0.00279851 24.7995 0ZM27.1982 26.0549L26.2675 25.1242C24.7335 23.557 22.2664 23.3937 20.5393 24.7456C19.6258 25.4964 19.0715 26.5986 19.0138 27.7802C18.9562 28.9616 19.4 30.1123 20.2363 30.9491L25.3776 36.0906C23.4602 39.1803 22.4319 42.7392 22.4064 46.3753H4.01056C2.68607 46.3753 1.61184 45.301 1.61184 43.9765V41.5778H21.6012V39.9787H1.61184V6.39659H27.1982V26.0549ZM1.61184 4.79744H27.1982V3.99787C27.1982 2.67337 26.124 1.59915 24.7995 1.59915H4.01056C2.68607 1.59915 1.61184 2.67337 1.61184 3.99787V4.79744ZM31.1549 18.6005L30.0767 19.7791L34.9802 24.2743C36.1346 25.3363 36.7927 26.8327 36.7931 28.4009V47.9744H38.3922V28.4009C38.3902 26.3839 37.5443 24.4606 36.0591 23.0955L31.1549 18.6005ZM4.81014 14.3923H8.00843C8.89176 14.3923 9.60758 13.6765 9.60758 12.7932V9.59488C9.60758 8.71155 8.89176 7.99574 8.00843 7.99574H4.81014C3.92681 7.99574 3.21099 8.71155 3.21099 9.59488V12.7932C3.21099 13.6765 3.92681 14.3923 4.81014 14.3923ZM4.81014 9.59488H8.00843V12.7932H4.81014V9.59488ZM16.0042 14.3923H12.8059C11.9225 14.3923 11.2067 13.6765 11.2067 12.7932V9.59488C11.2067 8.71155 11.9225 7.99574 12.8059 7.99574H16.0042C16.8875 7.99574 17.6033 8.71155 17.6033 9.59488V12.7932C17.6033 13.6765 16.8875 14.3923 16.0042 14.3923ZM16.0042 9.59488H12.8059V12.7932H16.0042V9.59488ZM20.8016 14.3923H23.9999C24.8832 14.3923 25.599 13.6765 25.599 12.7932V9.59488C25.599 8.71155 24.8832 7.99574 23.9999 7.99574H20.8016C19.9183 7.99574 19.2025 8.71155 19.2025 9.59488V12.7932C19.2025 13.6765 19.9183 14.3923 20.8016 14.3923ZM20.8016 9.59488H23.9999V12.7932H20.8016V9.59488ZM8.00843 22.3881H4.81014C3.92681 22.3881 3.21099 21.6722 3.21099 20.7889V17.5906C3.21099 16.7073 3.92681 15.9915 4.81014 15.9915H8.00843C8.89176 15.9915 9.60758 16.7073 9.60758 17.5906V20.7889C9.60758 21.6722 8.89176 22.3881 8.00843 22.3881ZM8.00843 17.5906H4.81014V20.7889H8.00843V17.5906ZM4.81014 30.3838H8.00843C8.89176 30.3838 9.60758 29.668 9.60758 28.7846V25.5864C9.60758 24.703 8.89176 23.9872 8.00843 23.9872H4.81014C3.92681 23.9872 3.21099 24.703 3.21099 25.5864V28.7846C3.21099 29.668 3.92681 30.3838 4.81014 30.3838ZM4.81014 25.5864H8.00843V28.7846H4.81014V25.5864ZM16.0042 22.3881H12.8059C11.9225 22.3881 11.2067 21.6722 11.2067 20.7889V17.5906C11.2067 16.7073 11.9225 15.9915 12.8059 15.9915H16.0042C16.8875 15.9915 17.6033 16.7073 17.6033 17.5906V20.7889C17.6033 21.6722 16.8875 22.3881 16.0042 22.3881ZM16.0042 17.5906H12.8059V20.7889H16.0042V17.5906ZM20.8016 22.3881H23.9999C24.8832 22.3881 25.599 21.6722 25.599 20.7889V17.5906C25.599 16.7073 24.8832 15.9915 23.9999 15.9915H20.8016C19.9183 15.9915 19.2025 16.7073 19.2025 17.5906V20.7889C19.2025 21.6722 19.9183 22.3881 20.8016 22.3881ZM20.8016 17.5906H23.9999V20.7889H20.8016V17.5906ZM16.0042 30.3838H12.8059C11.9225 30.3838 11.2067 29.668 11.2067 28.7846V25.5864C11.2067 24.703 11.9225 23.9872 12.8059 23.9872H16.0042C16.8875 23.9872 17.6033 24.703 17.6033 25.5864V28.7846C17.6033 29.668 16.8875 30.3838 16.0042 30.3838ZM16.0042 25.5864H12.8059V28.7846H16.0042V25.5864ZM4.81014 38.3795H8.00843C8.89176 38.3795 9.60758 37.6637 9.60758 36.7804V33.5821C9.60758 32.6988 8.89176 31.9829 8.00843 31.9829H4.81014C3.92681 31.9829 3.21099 32.6988 3.21099 33.5821V36.7804C3.21099 37.6637 3.92681 38.3795 4.81014 38.3795ZM4.81014 33.5821H8.00843V36.7804H4.81014V33.5821ZM16.0042 38.3795H12.8059C11.9225 38.3795 11.2067 37.6637 11.2067 36.7804V33.5821C11.2067 32.6988 11.9225 31.9829 12.8059 31.9829H16.0042C16.8875 31.9829 17.6033 32.6988 17.6033 33.5821V36.7804C17.6033 37.6637 16.8875 38.3795 16.0042 38.3795ZM16.0042 33.5821H12.8059V36.7804H16.0042V33.5821ZM15.2046 43.177H13.6054V44.7761H15.2046V43.177Z" fill="#495567"/>
</svg>
